PathFileType	4	(X/Y/Z)	jw_ngait_og1_rotated.trc
DataRate	CameraRate	NumFrames	NumMarkers	Units	OrigDataRate	OrigDataStartFrame	OrigNumFrames
120.000000	120.000000	6	56	mm	120.000000	205	327
Frame#	Time	Sternum			Neck			RShoulder			LShoulder			Xiphoid			Thoracic			RAsis			LAsis			RPsis			LPsis			Lumbar			RElbow			RWrist			RRadius			RUlna			LElbow			LWrist			LUlna			LRadius			LThighSuperior			LThighInferior			LThighLateral			LPatella			LShankSuperior			LShankInferior			LShankLateral			RThighSuperior			RThighInferior			RThighLateral			RPatella			RShankSuperior			RShankInferior			RShankLateral			RHeel			RToe			RMidfootMedial			RMidfootLateral			RHindfoot			RMidfootSuperior			RToeMedial			RToeLateral			LHeel			LToe			LMidfootMedial			LMidfootLateral			LHindfoot			LMidfootSuperior			LToeMedial			LToeLateral			LShoulderCenter			Oglobal			RShoulderCenter			Sacral			Xglobal			Yglobal			Zglobal			
		X1	Y1	Z1	X2	Y2	Z2	X3	Y3	Z3	X4	Y4	Z4	X5	Y5	Z5	X6	Y6	Z6	X7	Y7	Z7	X8	Y8	Z8	X9	Y9	Z9	X10	Y10	Z10	X11	Y11	Z11	X12	Y12	Z12	X13	Y13	Z13	X14	Y14	Z14	X15	Y15	Z15	X16	Y16	Z16	X17	Y17	Z17	X18	Y18	Z18	X19	Y19	Z19	X20	Y20	Z20	X21	Y21	Z21	X22	Y22	Z22	X23	Y23	Z23	X24	Y24	Z24	X25	Y25	Z25	X26	Y26	Z26	X27	Y27	Z27	X28	Y28	Z28	X29	Y29	Z29	X30	Y30	Z30	X31	Y31	Z31	X32	Y32	Z32	X33	Y33	Z33	X34	Y34	Z34	X35	Y35	Z35	X36	Y36	Z36	X37	Y37	Z37	X38	Y38	Z38	X39	Y39	Z39	X40	Y40	Z40	X41	Y41	Z41	X42	Y42	Z42	X43	Y43	Z43	X44	Y44	Z44	X45	Y45	Z45	X46	Y46	Z46	X47	Y47	Z47	X48	Y48	Z48	X49	Y49	Z49	X50	Y50	Z50	X51	Y51	Z51	X52	Y52	Z52	X53	Y53	Z53	X54	Y54	Z54	X55	Y55	Z55	X56	Y56	Z56	

205.00000	2.65833	-441.44919	1341.67896	-123.64331	-307.17300	1455.75598	-126.62509	-367.40164	1396.42737	-302.76459	-366.93204	1406.90417	59.63404	-439.64545	1226.57996	-114.70550	-219.18994	1264.84717	-110.61687	-425.98770	1002.38129	-245.35672	-416.01926	990.53998	25.20885	-211.53053	971.41327	-134.12711	-211.07993	975.06702	-74.96833	-211.08264	1042.77332	-109.17339	-322.33960	1062.61780	-379.40561	-435.32611	821.02740	-362.41241	-450.85849	831.05237	-327.31772	-387.50623	814.23749	-358.90714	-361.90701	1084.66296	162.54498	-524.40509	866.52557	168.29007	-479.39941	843.21490	165.41434	-528.73120	891.27942	131.49612	-352.64249	814.13940	66.56738	-325.32495	569.49103	16.96473	-401.89923	678.35223	2.63819	-352.84799	494.23691	-39.52440	-287.07355	423.00604	5.35911	-236.73396	171.00421	-30.37018	-294.11685	292.31638	-71.36143	-422.32324	815.78528	-276.86597	-575.94427	622.54657	-247.09572	-562.17230	724.93225	-221.30038	-632.27100	561.27081	-198.92625	-542.38708	423.79977	-267.54648	-582.48114	193.09485	-219.25697	-610.53748	299.86530	-179.45287	-515.74811	58.91751	-176.71259	-805.11273	122.40466	-221.17610	-733.03162	99.56849	-157.39450	-703.51776	95.79870	-268.37292	-631.01373	59.27995	-256.97635	-668.41858	156.17955	-201.54608	-771.24591	104.37307	-173.12207	-761.15619	108.66939	-260.94394	-128.74663	51.96999	-69.40468	-426.96271	53.24139	-44.57796	-339.74695	25.96222	-108.93646	-323.19800	34.48606	14.30627	-223.39076	22.71192	-1.63995	-298.85513	107.05235	-57.08956	-388.58911	42.91505	-85.98289	-373.97110	43.40749	2.26394	-338.27243	1362.55249	51.34108	0.00000	0.00000	0.00000	-340.52371	1353.14111	-300.53830	-211.30524	973.24011	-104.54771	200.00000	0.00000	0.00000	0.00000	0.00000	-200.00000	0.00000	200.00000	0.00000
206.00000	2.66667	-451.47339	1339.89990	-124.07350	-317.15475	1453.80139	-126.81176	-376.87851	1394.70996	-302.95706	-377.47650	1405.34558	59.33769	-449.69043	1224.79077	-115.09097	-229.29930	1263.03101	-110.60974	-435.50229	1000.60571	-245.33835	-426.43518	988.93060	25.00614	-222.09871	969.38898	-133.73814	-221.39935	973.07709	-74.92538	-220.96826	1040.70117	-108.61882	-331.36716	1060.99695	-379.70724	-444.30591	819.26288	-362.91962	-459.93835	829.42371	-327.82629	-396.46613	812.43347	-359.67654	-374.82404	1083.44177	163.04628	-538.64850	866.39978	167.85576	-493.80133	842.73810	165.63918	-542.51062	891.18396	131.07764	-360.68109	812.91333	67.01672	-328.98584	569.01733	16.59322	-407.23087	676.46167	3.04470	-355.84808	493.43372	-39.64501	-289.22498	423.12683	4.89095	-237.73874	171.13402	-30.76154	-295.92032	292.15405	-71.37691	-431.27530	813.36230	-277.24985	-583.17755	619.00702	-247.86423	-570.29791	721.08966	-221.74715	-639.61414	560.44379	-200.28302	-555.34717	419.20645	-267.09808	-608.94427	190.89957	-219.62878	-632.06525	299.09656	-180.46994	-550.85870	53.01735	-175.86459	-835.34204	132.77713	-225.16298	-765.57147	106.63046	-159.68127	-735.05066	99.77348	-270.23874	-665.06793	59.06462	-257.70938	-697.30396	158.85262	-203.70152	-803.33844	112.94975	-176.60239	-791.90881	115.97140	-264.04636	-128.90295	52.28652	-69.44308	-427.01782	53.05865	-44.57343	-339.82175	25.57855	-108.94308	-323.28738	34.19816	14.29495	-223.26465	22.74217	-1.72820	-299.17752	106.81548	-57.12900	-388.56653	42.71496	-85.96189	-374.03958	43.15739	2.39146	-348.79901	1360.76245	51.20743	0.00000	0.00000	0.00000	-350.01285	1351.19556	-300.67285	-221.74902	971.23303	-104.33176	200.00000	0.00000	0.00000	0.00000	0.00000	-200.00000	0.00000	200.00000	0.00000
207.00000	2.67500	-461.52609	1337.96265	-124.45544	-327.38116	1451.76587	-126.89482	-386.56644	1392.73608	-303.31699	-388.04709	1403.46790	58.98211	-459.88672	1222.84473	-115.43613	-239.33990	1260.85706	-110.88528	-445.47031	998.66760	-245.46515	-436.88898	987.31604	24.77685	-232.57133	967.14563	-133.83424	-232.08517	970.93420	-74.92408	-231.07967	1038.45642	-108.49983	-340.56851	1059.21167	-380.10040	-453.32547	817.31299	-363.52231	-469.02335	827.51801	-328.47522	-405.49191	810.62274	-360.15967	-387.44788	1082.05957	163.41002	-552.88702	866.26208	167.36688	-508.39731	842.02960	166.25525	-556.12640	890.84760	130.43527	-368.57339	811.80902	67.16194	-332.85855	568.46149	16.24043	-413.15390	675.22894	2.99800	-359.38025	492.74518	-39.90462	-291.57172	423.18237	4.40946	-238.42464	171.28696	-31.38522	-297.74197	291.96899	-71.39980	-440.15964	810.69543	-277.80737	-590.21234	615.05963	-248.79968	-578.31226	716.87231	-222.25345	-646.62323	559.05493	-201.50880	-568.04767	414.64609	-266.48257	-634.84344	189.45998	-220.66286	-652.97809	298.69684	-181.74947	-585.57898	48.21788	-175.27463	-864.35577	143.59485	-229.32631	-797.09088	114.12424	-162.74915	-765.49500	104.27765	-272.77750	-698.10071	59.86432	-258.74893	-725.47363	161.96704	-206.36369	-834.20697	122.60127	-180.41145	-821.35358	124.06824	-267.62604	-129.22420	52.82657	-69.32280	-426.31946	53.09424	-44.79980	-339.98508	25.48608	-109.23084	-323.67896	33.85223	14.05506	-223.16754	22.67582	-1.89154	-299.54572	106.68176	-57.15837	-388.68649	42.51336	-85.89905	-374.17795	42.93665	2.52365	-359.28278	1358.89624	51.06883	0.00000	0.00000	0.00000	-359.63953	1349.23572	-300.81079	-232.32825	969.03992	-104.37917	200.00000	0.00000	0.00000	0.00000	0.00000	-200.00000	0.00000	200.00000	0.00000
208.00000	2.68333	-471.78217	1335.66846	-124.94476	-337.43481	1449.51526	-127.30837	-396.34369	1390.71082	-303.68851	-398.59729	1401.52356	58.42019	-470.10330	1220.72974	-115.77601	-249.62769	1258.63428	-111.05042	-455.99823	996.45404	-245.57907	-447.44366	985.39038	24.53379	-243.17799	964.76862	-133.98036	-242.74800	968.56598	-75.00087	-241.55272	1036.07214	-108.72359	-349.53308	1057.10352	-380.51581	-462.11322	815.18994	-364.22290	-477.69318	825.15186	-328.94232	-413.94385	808.92786	-361.04153	-399.97513	1080.46729	163.59741	-566.86005	865.60431	166.67113	-522.21063	841.27252	165.66867	-569.60620	890.16302	129.65817	-376.75323	810.67194	67.41664	-336.94443	567.95959	15.76432	-419.36646	673.42206	3.12622	-362.74582	491.76611	-40.21688	-294.10501	423.30722	3.87465	-238.62251	173.05078	-30.30203	-299.84903	291.82993	-71.56203	-449.56757	807.56500	-278.36258	-596.86023	610.91083	-249.53798	-585.86920	712.08661	-222.39064	-652.98291	557.14282	-202.17218	-580.23090	410.20541	-265.93668	-659.78662	188.86118	-222.05093	-673.43683	298.80618	-183.03978	-619.46710	44.82185	-175.00972	-891.43707	154.62894	-233.81192	-827.13690	122.47214	-165.98079	-794.81293	109.48133	-275.47003	-730.07172	61.50710	-260.03024	-752.34943	165.62044	-209.23071	-863.56073	132.67986	-184.25185	-849.27832	132.18918	-271.05771	-129.44522	53.25039	-69.50082	-427.15292	52.46896	-44.35426	-340.13089	25.01809	-109.18439	-323.74002	33.54215	14.07946	-223.35538	22.78746	-1.91800	-300.01767	106.43075	-57.20778	-388.84055	42.35033	-85.87577	-374.21408	42.64578	2.59541	-369.90616	1356.59180	50.79419	0.00000	0.00000	0.00000	-369.51071	1346.84827	-301.08313	-242.96300	966.66730	-104.49062	200.00000	0.00000	0.00000	0.00000	0.00000	-200.00000	0.00000	200.00000	0.00000
209.00000	2.69167	-482.02982	1333.28796	-125.42274	-347.50986	1447.02356	-127.59481	-406.02396	1388.43359	-304.21011	-409.12250	1399.38281	57.99443	-480.33908	1218.33044	-116.15040	-259.80725	1256.11108	-111.43149	-466.77579	994.35309	-245.77582	-458.00143	983.37372	24.33532	-254.04028	962.00330	-134.15866	-253.45366	965.93225	-75.40871	-252.08022	1033.36414	-109.13720	-358.69153	1055.01453	-381.01428	-470.97968	812.83276	-365.06262	-486.43985	822.62189	-329.96048	-421.76157	806.87158	-361.95370	-412.83511	1078.55066	163.58096	-580.83783	864.81573	165.85922	-536.55353	839.88391	164.77449	-582.94427	889.50519	128.96696	-385.01376	809.41614	67.39568	-341.38474	567.29413	15.28657	-425.64008	671.47821	3.62357	-366.51877	491.29385	-40.06604	-296.73895	423.86539	3.66618	-239.69412	172.54256	-30.79182	-302.17896	291.51273	-71.73191	-458.81180	804.32355	-279.12167	-602.74017	606.27606	-249.44914	-593.67120	707.34601	-222.65474	-659.38647	555.00336	-202.63380	-592.05859	405.82544	-265.26678	-683.66040	188.68495	-223.44615	-692.86957	299.47644	-184.55321	-651.97430	42.88928	-175.18398	-917.45605	165.30812	-238.05507	-855.55737	130.97281	-169.43576	-822.68658	115.17213	-278.39145	-760.02295	63.90897	-261.29874	-778.03296	169.65805	-212.18831	-891.13947	142.84448	-188.02699	-876.18854	140.61917	-274.20175	-129.71834	53.72395	-69.67930	-427.75519	51.94934	-44.07750	-340.26178	24.52330	-109.41700	-323.92505	32.99126	13.85790	-223.02145	22.62394	-2.20498	-300.47900	106.05045	-57.35184	-389.16626	42.10724	-85.74036	-374.33719	42.47527	2.68593	-380.54688	1354.16492	50.54897	0.00000	0.00000	0.00000	-379.33038	1344.29395	-301.32291	-253.74698	963.96777	-104.78369	200.00000	0.00000	0.00000	0.00000	0.00000	-200.00000	0.00000	200.00000	0.00000
210.00000	2.70000	-492.20312	1330.86584	-125.97113	-357.66437	1444.38440	-128.06830	-416.20590	1385.90674	-304.62225	-419.61078	1397.09949	57.31466	-490.76117	1215.86157	-116.57528	-270.07654	1253.33337	-111.86543	-477.69601	991.81989	-245.85840	-468.77930	981.26703	24.04916	-264.90848	959.25171	-134.57755	-264.37955	963.20514	-75.71221	-262.83664	1030.61108	-109.52689	-367.90445	1052.59546	-381.59161	-479.66476	810.13605	-365.93225	-495.53543	820.18127	-330.79343	-431.38837	804.04016	-362.65289	-425.29565	1076.64600	163.58565	-594.60571	863.84839	165.11346	-550.43274	838.69775	164.47751	-596.09351	888.34827	128.05215	-393.52002	808.08112	67.58095	-346.05658	566.73358	14.85197	-432.78638	669.54480	4.15410	-370.76053	489.75269	-40.69320	-299.87991	423.87521	3.17573	-240.59328	172.42712	-31.91766	-304.49564	291.26093	-72.01263	-468.26404	800.86719	-279.61221	-609.50208	602.14807	-249.75391	-601.36090	702.42493	-222.46986	-665.76367	552.83539	-202.63396	-603.88049	401.94370	-264.63086	-706.55542	189.53293	-225.17606	-711.26105	300.27512	-185.84595	-682.19751	42.02638	-176.52765	-941.69135	175.88237	-242.13603	-881.73096	139.01085	-172.25671	-849.22394	120.86852	-280.95648	-789.11517	66.79621	-263.52893	-802.42200	173.87497	-215.03412	-916.80963	152.43341	-191.51402	-901.16046	148.84804	-278.15881	-129.80315	54.25127	-69.88757	-427.87747	51.73667	-43.93958	-340.22705	23.94871	-109.43297	-323.83075	32.56578	13.82369	-223.17258	22.83310	-2.33813	-300.94229	105.74348	-57.43522	-389.58801	42.19791	-85.75481	-374.63708	42.20987	2.84552	-390.85468	1351.76172	50.07583	0.00000	0.00000	0.00000	-389.33749	1341.64819	-301.78799	-264.64401	961.22839	-105.14488	200.00000	0.00000	0.00000	0.00000	0.00000	-200.00000	0.00000	200.00000	0.00000
